<svg width="32" height="36" viewBox="0 0 32 36" fill="none" xmlns="http://www.w3.org/2000/svg">
<path d="M23.5527 0C23.6441 0 23.7354 0 23.8319 0C24.056 2.5388 22.9995 4.43578 21.7154 5.80951C20.4554 7.17376 18.7301 8.4969 15.9397 8.29614C15.7535 5.7937 16.8118 4.03741 18.0941 2.66684C19.2834 1.38954 21.4637 0.252931 23.5527 0Z" fill="#1C1C1C"/>
<path d="M32 26.4251C32 26.4504 32 26.4725 32 26.4962C31.2158 28.6746 30.0972 30.5415 28.7321 32.2741C27.4859 33.847 25.9588 35.9637 23.2321 35.9637C20.876 35.9637 19.311 34.5742 16.8963 34.5362C14.3419 34.4983 12.9372 35.6982 10.6017 36.0001C10.3346 36.0001 10.0674 36.0001 9.80545 36.0001C8.09049 35.7724 6.70645 34.5268 5.69816 33.4044C2.72498 30.0878 0.427448 25.8038 0 20.3215C0 19.784 0 19.2481 0 18.7107C0.180976 14.7871 2.25961 11.597 5.02251 10.0509C6.48066 9.22891 8.48519 8.52861 10.7172 8.84161C11.6738 8.97756 12.6511 9.27792 13.5077 9.57511C14.3195 9.86124 15.3347 10.3687 16.2965 10.3418C16.948 10.3244 17.596 10.013 18.2527 9.79326C20.1762 9.15619 22.0618 8.42585 24.5472 8.76889C27.5342 9.18307 29.6542 10.4003 30.9641 12.2783C28.4374 13.7532 26.4397 15.9758 26.781 19.7714C27.0843 23.2192 29.2698 25.2363 32 26.4251Z" fill="#1C1C1C"/>
</svg>
